<mxfile host="app.diagrams.net" modified="2021-07-29T13:51:28.171Z" agent="5.0 (Windows NT 10.0; Win64; x64) AppleWebKit/537.36 (KHTML, like Gecko) Chrome/92.0.4515.107 Safari/537.36" etag="W5Qudfu7GK0jAyguK-Hc" version="14.9.3" type="github">
  <diagram id="kgpKYQtTHZ0yAKxKKP6v" name="Page-1">
    <mxGraphModel dx="1221" dy="681" grid="1" gridSize="10" guides="1" tooltips="1" connect="1" arrows="1" fold="1" page="1" pageScale="1" pageWidth="850" pageHeight="1100" math="0" shadow="0">
      <root>
        <mxCell id="0" />
        <mxCell id="1" parent="0" />
        <mxCell id="3nuBFxr9cyL0pnOWT2aG-1" value=":User" style="shape=umlLifeline;perimeter=lifelinePerimeter;container=1;collapsible=0;recursiveResize=0;rounded=0;shadow=0;strokeWidth=1;" parent="1" vertex="1">
          <mxGeometry x="120" y="80" width="100" height="300" as="geometry" />
        </mxCell>
        <mxCell id="3nuBFxr9cyL0pnOWT2aG-2" value="" style="points=[];perimeter=orthogonalPerimeter;rounded=0;shadow=0;strokeWidth=1;" parent="3nuBFxr9cyL0pnOWT2aG-1" vertex="1">
          <mxGeometry x="45" y="70" width="10" height="190" as="geometry" />
        </mxCell>
        <mxCell id="3nuBFxr9cyL0pnOWT2aG-5" value="server.py" style="shape=umlLifeline;perimeter=lifelinePerimeter;container=1;collapsible=0;recursiveResize=0;rounded=0;shadow=0;strokeWidth=1;" parent="1" vertex="1">
          <mxGeometry x="320" y="80" width="100" height="300" as="geometry" />
        </mxCell>
        <mxCell id="3nuBFxr9cyL0pnOWT2aG-6" value="" style="points=[];perimeter=orthogonalPerimeter;rounded=0;shadow=0;strokeWidth=1;" parent="3nuBFxr9cyL0pnOWT2aG-5" vertex="1">
          <mxGeometry x="45" y="80" width="10" height="190" as="geometry" />
        </mxCell>
        <mxCell id="88xglfCzfbfs0HN_UhHn-10" value="" style="curved=1;endArrow=classic;html=1;fontSize=10;entryX=-0.2;entryY=0.657;entryDx=0;entryDy=0;entryPerimeter=0;" edge="1" parent="3nuBFxr9cyL0pnOWT2aG-5">
          <mxGeometry width="50" height="50" relative="1" as="geometry">
            <mxPoint x="45" y="170" as="sourcePoint" />
            <mxPoint x="44.99999999999994" y="185.12" as="targetPoint" />
            <Array as="points">
              <mxPoint x="41" y="170" />
              <mxPoint x="30" y="170" />
              <mxPoint x="19" y="170" />
              <mxPoint x="19" y="180" />
              <mxPoint x="19" y="185" />
            </Array>
          </mxGeometry>
        </mxCell>
        <mxCell id="88xglfCzfbfs0HN_UhHn-16" value="" style="endArrow=classic;html=1;fontSize=10;exitX=1.114;exitY=0.901;exitDx=0;exitDy=0;exitPerimeter=0;entryX=0.977;entryY=0.966;entryDx=0;entryDy=0;entryPerimeter=0;" edge="1" parent="3nuBFxr9cyL0pnOWT2aG-5" source="3nuBFxr9cyL0pnOWT2aG-6" target="3nuBFxr9cyL0pnOWT2aG-6">
          <mxGeometry width="50" height="50" relative="1" as="geometry">
            <mxPoint x="55" y="251" as="sourcePoint" />
            <mxPoint x="92" y="111" as="targetPoint" />
            <Array as="points">
              <mxPoint x="80" y="251" />
              <mxPoint x="80" y="264" />
              <mxPoint x="70" y="264" />
            </Array>
          </mxGeometry>
        </mxCell>
        <mxCell id="3nuBFxr9cyL0pnOWT2aG-8" value="1. Consumer propensity evaluation selection" style="verticalAlign=bottom;endArrow=block;entryX=0;entryY=0;shadow=0;strokeWidth=1;fontSize=10;" parent="1" edge="1">
          <mxGeometry relative="1" as="geometry">
            <mxPoint x="175" y="160" as="sourcePoint" />
            <mxPoint x="365" y="160.0000000000001" as="targetPoint" />
            <Array as="points">
              <mxPoint x="270" y="160" />
            </Array>
            <mxPoint as="offset" />
          </mxGeometry>
        </mxCell>
        <mxCell id="88xglfCzfbfs0HN_UhHn-1" value="analysis.html" style="shape=umlLifeline;perimeter=lifelinePerimeter;container=1;collapsible=0;recursiveResize=0;rounded=0;shadow=0;strokeWidth=1;" vertex="1" parent="1">
          <mxGeometry x="520" y="80" width="100" height="300" as="geometry" />
        </mxCell>
        <mxCell id="88xglfCzfbfs0HN_UhHn-2" value="" style="points=[];perimeter=orthogonalPerimeter;rounded=0;shadow=0;strokeWidth=1;" vertex="1" parent="88xglfCzfbfs0HN_UhHn-1">
          <mxGeometry x="45" y="80" width="10" height="160" as="geometry" />
        </mxCell>
        <mxCell id="88xglfCzfbfs0HN_UhHn-3" value="result.html" style="shape=umlLifeline;perimeter=lifelinePerimeter;container=1;collapsible=0;recursiveResize=0;rounded=0;shadow=0;strokeWidth=1;" vertex="1" parent="1">
          <mxGeometry x="720" y="80" width="100" height="300" as="geometry" />
        </mxCell>
        <mxCell id="88xglfCzfbfs0HN_UhHn-4" value="" style="points=[];perimeter=orthogonalPerimeter;rounded=0;shadow=0;strokeWidth=1;" vertex="1" parent="88xglfCzfbfs0HN_UhHn-3">
          <mxGeometry x="45" y="80" width="10" height="160" as="geometry" />
        </mxCell>
        <mxCell id="88xglfCzfbfs0HN_UhHn-5" value="1.1 Go to the evaluation screen" style="verticalAlign=bottom;endArrow=block;shadow=0;strokeWidth=1;fontSize=10;" edge="1" parent="1">
          <mxGeometry relative="1" as="geometry">
            <mxPoint x="380" y="170" as="sourcePoint" />
            <mxPoint x="560" y="170" as="targetPoint" />
            <Array as="points">
              <mxPoint x="475" y="170" />
            </Array>
            <mxPoint as="offset" />
          </mxGeometry>
        </mxCell>
        <mxCell id="88xglfCzfbfs0HN_UhHn-6" value="2. Evaluation result screen output" style="verticalAlign=bottom;endArrow=open;dashed=1;endSize=8;exitX=0;exitY=0.95;shadow=0;strokeWidth=1;fontSize=10;" edge="1" parent="1">
          <mxGeometry relative="1" as="geometry">
            <mxPoint x="180" y="190" as="targetPoint" />
            <mxPoint x="560" y="190" as="sourcePoint" />
          </mxGeometry>
        </mxCell>
        <mxCell id="88xglfCzfbfs0HN_UhHn-7" value="3. Select radio button format to enter rating and submit survey" style="verticalAlign=bottom;endArrow=block;shadow=0;strokeWidth=1;fontSize=10;" edge="1" parent="1">
          <mxGeometry relative="1" as="geometry">
            <mxPoint x="180" y="217" as="sourcePoint" />
            <mxPoint x="569.5" y="217" as="targetPoint" />
            <Array as="points">
              <mxPoint x="275" y="217" />
            </Array>
            <mxPoint as="offset" />
          </mxGeometry>
        </mxCell>
        <mxCell id="88xglfCzfbfs0HN_UhHn-8" value="4. pass answer value" style="verticalAlign=bottom;endArrow=open;dashed=1;endSize=8;exitX=0;exitY=0.95;shadow=0;strokeWidth=1;fontSize=10;" edge="1" parent="1">
          <mxGeometry relative="1" as="geometry">
            <mxPoint x="370" y="239.99999999999977" as="targetPoint" />
            <mxPoint x="560" y="239.99999999999977" as="sourcePoint" />
          </mxGeometry>
        </mxCell>
        <mxCell id="88xglfCzfbfs0HN_UhHn-9" value="8. Passing customer investment propensity value" style="verticalAlign=bottom;endArrow=open;dashed=1;endSize=8;shadow=0;strokeWidth=1;fontSize=10;" edge="1" parent="1">
          <mxGeometry relative="1" as="geometry">
            <mxPoint x="370" y="315.9999999999998" as="targetPoint" />
            <mxPoint x="760" y="316" as="sourcePoint" />
          </mxGeometry>
        </mxCell>
        <mxCell id="88xglfCzfbfs0HN_UhHn-12" value="5. Returns the propensity value by taking the sum of the answer" style="text;html=1;strokeColor=none;fillColor=none;align=center;verticalAlign=middle;whiteSpace=wrap;rounded=0;fontSize=10;" vertex="1" parent="1">
          <mxGeometry x="220" y="248" width="300" height="20" as="geometry" />
        </mxCell>
        <mxCell id="88xglfCzfbfs0HN_UhHn-13" value="6. Passing customer investment propensity value" style="verticalAlign=bottom;endArrow=block;shadow=0;strokeWidth=1;fontSize=10;" edge="1" parent="1">
          <mxGeometry relative="1" as="geometry">
            <mxPoint x="375.25" y="280" as="sourcePoint" />
            <mxPoint x="764.75" y="280" as="targetPoint" />
            <Array as="points">
              <mxPoint x="470.25" y="280" />
            </Array>
            <mxPoint as="offset" />
          </mxGeometry>
        </mxCell>
        <mxCell id="88xglfCzfbfs0HN_UhHn-14" value="7. Select the check box and select the fund recommendation button" style="verticalAlign=bottom;endArrow=block;shadow=0;strokeWidth=1;fontSize=10;" edge="1" parent="1">
          <mxGeometry x="-0.0073" relative="1" as="geometry">
            <mxPoint x="180" y="298" as="sourcePoint" />
            <mxPoint x="764.75" y="298" as="targetPoint" />
            <Array as="points">
              <mxPoint x="470.25" y="298" />
            </Array>
            <mxPoint as="offset" />
          </mxGeometry>
        </mxCell>
        <mxCell id="88xglfCzfbfs0HN_UhHn-17" value="9. Return the result value according to the customer&#39;s investment propensity value" style="text;html=1;strokeColor=none;fillColor=none;align=center;verticalAlign=middle;whiteSpace=wrap;rounded=0;fontSize=10;" vertex="1" parent="1">
          <mxGeometry x="190" y="328" width="370" height="20" as="geometry" />
        </mxCell>
      </root>
    </mxGraphModel>
  </diagram>
</mxfile>
